<svg width="24" height="24" viewBox="0 0 24 24" fill="none" xmlns="http://www.w3.org/2000/svg">
<path d="M15.1875 6.56183L20.1041 10.6319C20.4052 10.8811 20.2288 11.3704 19.8382 11.3704H4.89055C4.49986 11.3704 4.32354 10.8811 4.62464 10.6319L9.54117 6.56183" stroke="#4B5563" stroke-width="0.8" stroke-miterlimit="10" stroke-linecap="round" stroke-linejoin="round"/>
<path d="M15.476 5.83133H17.6942C17.7202 5.83133 17.746 5.83645 17.7701 5.84642C17.7942 5.85639 17.816 5.87101 17.8345 5.88943C17.8529 5.90786 17.8675 5.92974 17.8775 5.95381C17.8874 5.97789 17.8925 6.00369 17.8925 6.02974V6.85694C17.8925 7.02753 18.0881 7.12449 18.2239 7.0214L20.9182 4.97754C21.027 4.89491 21.027 4.73127 20.9182 4.64863L18.2239 2.60519C18.0881 2.50169 17.8925 2.59905 17.8925 2.76965V3.59643C17.8925 3.70607 17.8038 3.79525 17.6942 3.79525H15.3242" stroke="#4B5563" stroke-width="0.8" stroke-miterlimit="10" stroke-linecap="round" stroke-linejoin="round"/>
<path d="M9.40999 3.79525H7.04005C6.98738 3.79517 6.93691 3.77418 6.89971 3.7369C6.86252 3.69962 6.84164 3.64909 6.84168 3.59643V2.76965C6.84168 2.59905 6.64609 2.50169 6.51031 2.60519L3.81599 4.64863C3.70717 4.73127 3.70717 4.89491 3.81599 4.97754L6.51031 7.0214C6.64609 7.12449 6.84168 7.02753 6.84168 6.85694V6.02974C6.84168 5.9201 6.93045 5.83133 7.04005 5.83133H9.25821" stroke="#4B5563" stroke-width="0.8" stroke-miterlimit="10" stroke-linecap="round" stroke-linejoin="round"/>
<path d="M13.1683 3.94967C13.1683 3.94967 12.6758 3.53566 12.095 3.71063C11.5617 3.87129 11.4871 4.48624 11.8729 4.73775C11.8729 4.73775 12.2515 4.90667 12.6715 5.06155C13.6823 5.43441 13.2468 6.41235 12.4331 6.41235C12.0256 6.41235 11.6836 6.23391 11.4766 6.00547" stroke="#4B5563" stroke-width="0.8" stroke-miterlimit="10" stroke-linecap="round" stroke-linejoin="round"/>
<path d="M12.3711 6.91235V6.41109" stroke="#4B5563" stroke-width="0.8" stroke-miterlimit="10" stroke-linecap="round" stroke-linejoin="round"/>
<path d="M12.3711 3.66772V3.1674" stroke="#4B5563" stroke-width="0.8" stroke-miterlimit="10" stroke-linecap="round" stroke-linejoin="round"/>
<path d="M15.5736 5.04012C15.5736 6.81114 14.1379 8.24683 12.3669 8.24683C10.5958 8.24683 9.16016 6.81114 9.16016 5.04012C9.16016 3.26909 10.5958 1.8334 12.3669 1.8334C14.1379 1.8334 15.5736 3.26909 15.5736 5.04012Z" stroke="#4B5563" stroke-width="0.8" stroke-miterlimit="10" stroke-linecap="round" stroke-linejoin="round"/>
<path d="M5.66406 11.3703V12.7801C5.66406 12.9573 5.80766 13.1008 5.98475 13.1008H18.7478C18.8328 13.1008 18.9144 13.067 18.9745 13.0069C19.0347 12.9468 19.0685 12.8652 19.0685 12.7801V11.3703" stroke="#4B5563" stroke-width="0.8" stroke-miterlimit="10" stroke-linecap="round" stroke-linejoin="round"/>
<path d="M19.0685 20.4783V19.0685C19.0685 18.8913 18.9249 18.7478 18.7478 18.7478H5.98475C5.8997 18.7478 5.81813 18.7816 5.75799 18.8417C5.69785 18.9019 5.66406 18.9834 5.66406 19.0685V20.4783" stroke="#4B5563" stroke-width="0.8" stroke-miterlimit="10" stroke-linecap="round" stroke-linejoin="round"/>
<path d="M7.88314 22.1653H4.74753C4.67463 22.1653 4.60471 22.1363 4.55316 22.0848C4.50162 22.0332 4.47266 21.9633 4.47266 21.8904V20.7533C4.47266 20.6804 4.50162 20.6105 4.55316 20.559C4.60471 20.5074 4.67463 20.4785 4.74753 20.4785H19.9812C20.0173 20.4785 20.053 20.4856 20.0864 20.4994C20.1197 20.5132 20.15 20.5334 20.1756 20.559C20.2011 20.5845 20.2213 20.6148 20.2351 20.6481C20.2489 20.6815 20.256 20.7172 20.256 20.7533V21.8904C20.256 21.9265 20.2489 21.9622 20.2351 21.9956C20.2213 22.0289 20.2011 22.0592 20.1756 22.0848C20.15 22.1103 20.1197 22.1305 20.0864 22.1444C20.053 22.1582 20.0173 22.1653 19.9812 22.1653H9.31498" stroke="#4B5563" stroke-width="0.8" stroke-miterlimit="10" stroke-linecap="round" stroke-linejoin="round"/>
<path d="M6.43359 18.7478V13.1007" stroke="#4B5563" stroke-width="0.8" stroke-miterlimit="10" stroke-linecap="round" stroke-linejoin="round"/>
<path d="M8.60156 13.1007V18.7478" stroke="#4B5563" stroke-width="0.8" stroke-miterlimit="10" stroke-linecap="round" stroke-linejoin="round"/>
<path d="M11.2812 18.7478V13.1007" stroke="#4B5563" stroke-width="0.8" stroke-miterlimit="10" stroke-linecap="round" stroke-linejoin="round"/>
<path d="M13.4531 13.1007V18.7478" stroke="#4B5563" stroke-width="0.8" stroke-miterlimit="10" stroke-linecap="round" stroke-linejoin="round"/>
<path d="M18.3047 13.1009V14.2786" stroke="#4B5563" stroke-width="0.8" stroke-miterlimit="10" stroke-linecap="round" stroke-linejoin="round"/>
<path d="M16.1328 18.7478V13.1007" stroke="#4B5563" stroke-width="0.8" stroke-miterlimit="10" stroke-linecap="round" stroke-linejoin="round"/>
<path d="M18.3047 15.7103V18.7478" stroke="#4B5563" stroke-width="0.8" stroke-miterlimit="10" stroke-linecap="round" stroke-linejoin="round"/>
</svg>
