<svg width="24" height="24" viewBox="0 0 24 24" fill="none" xmlns="http://www.w3.org/2000/svg">
<path d="M22.5364 11.9022L16.3008 9.47727C16.231 9.45145 16.1577 9.43624 16.0833 9.43216L19.1222 6.39322C19.2593 6.25571 19.3363 6.06947 19.3363 5.8753C19.3363 5.68114 19.2593 5.49489 19.1222 5.35738L14.9734 1.20411C14.8359 1.06714 14.6497 0.990234 14.4556 0.990234C14.2615 0.990234 14.0754 1.06714 13.9379 1.20411L12.1189 3.02343L11.9168 2.85177C11.6981 2.65505 11.4275 2.52508 11.1372 2.47724C10.8469 2.4294 10.549 2.46569 10.2787 2.58181C8.91509 3.08449 7.48736 3.39222 6.03776 3.49587C5.95726 3.29543 5.81802 3.12401 5.63832 3.00415C5.45863 2.88429 5.24688 2.82158 5.03089 2.82426H1.72969C1.53513 2.82426 1.34854 2.90155 1.21096 3.03913C1.07338 3.1767 0.996094 3.3633 0.996094 3.55786L0.996094 9.05986C0.996094 9.25442 1.07338 9.44101 1.21096 9.57859C1.34854 9.71617 1.53513 9.79346 1.72969 9.79346H4.46822C4.71192 9.79305 4.9486 9.71175 5.14112 9.56232C5.33363 9.41289 5.47109 9.20378 5.53194 8.96779C5.68196 9.07783 5.82758 9.1809 5.98127 9.27627C5.93833 9.40483 5.93185 9.54277 5.96253 9.67478C5.99322 9.8068 6.05989 9.92774 6.15513 10.0242L9.06569 12.9325V13.8294C9.06569 14.0239 9.14298 14.2105 9.28055 14.3481C9.41813 14.4857 9.60472 14.563 9.79929 14.563V18.7005C9.68819 18.7643 9.59582 18.8562 9.53144 18.967C9.46706 19.0778 9.43294 19.2036 9.43249 19.3317V20.1677C9.32133 20.2315 9.22893 20.3235 9.16455 20.4344C9.10017 20.5452 9.06607 20.6711 9.06569 20.7993V22.2665C9.06569 22.461 9.14298 22.6476 9.28055 22.7852C9.41813 22.9228 9.60472 23.0001 9.79929 23.0001H22.2705C22.465 23.0001 22.6516 22.9228 22.7892 22.7852C22.9268 22.6476 23.0041 22.461 23.0041 22.2665V20.7993C23.0037 20.6711 22.9696 20.5452 22.9052 20.4344C22.8408 20.3235 22.7484 20.2315 22.6373 20.1677V19.3317C22.6368 19.2036 22.6027 19.0778 22.5383 18.967C22.4739 18.8562 22.3816 18.7643 22.2705 18.7005V14.563C22.465 14.563 22.6516 14.4857 22.7892 14.3481C22.9268 14.2105 23.0041 14.0239 23.0041 13.8294V12.5866C23.0048 12.4386 22.9604 12.2938 22.8769 12.1715C22.7934 12.0493 22.6746 11.9553 22.5364 11.9022ZM17.8256 6.65218C17.6198 6.44548 17.5043 6.16569 17.5043 5.87402C17.5043 5.58235 17.6198 5.30256 17.8256 5.09585L18.6025 5.8742L17.8256 6.65218ZM14.4551 1.72313L15.2334 2.50184C15.0268 2.7076 14.7471 2.82312 14.4554 2.82312C14.1638 2.82312 13.8841 2.7076 13.6775 2.50184L14.4551 1.72313ZM10.5644 3.25819C10.7083 3.19644 10.867 3.17745 11.0214 3.20346C11.1758 3.22948 11.3195 3.29942 11.4352 3.40491L13.8113 5.41387C13.934 5.53041 14.0054 5.69078 14.0101 5.85988C14.0148 6.02899 13.9523 6.19306 13.8363 6.3162C13.7173 6.42665 13.5612 6.48854 13.3988 6.4897C13.2364 6.49085 13.0795 6.43118 12.9589 6.32243C12.9589 6.32243 11.7591 5.28732 11.5232 5.07788C11.3131 4.89238 11.0401 4.79406 10.7599 4.80299C10.4798 4.81191 10.2136 4.92742 10.0157 5.12593L6.44307 8.69856C6.16468 8.52749 5.89759 8.33869 5.64345 8.13332L6.10341 4.22654C7.62854 4.11501 9.13032 3.78902 10.5644 3.25819ZM13.6764 8.7279C13.3997 8.99521 13.0291 9.14317 12.6444 9.13989C12.2597 9.13662 11.8917 8.98238 11.6196 8.71039C11.3475 8.43841 11.1932 8.07045 11.1898 7.68575C11.1863 7.30106 11.3342 6.93041 11.6014 6.65365C11.7 6.55761 11.8122 6.47665 11.9344 6.4134C12.1132 6.56735 12.2928 6.72031 12.4733 6.87226C12.6733 7.05327 12.9226 7.17081 13.1896 7.20999C13.4565 7.24917 13.7291 7.20823 13.9727 7.09234C14.0945 7.36295 14.1314 7.66414 14.0785 7.95614C14.0256 8.24814 13.8854 8.51724 13.6764 8.7279ZM4.46969 9.06059H1.72969V3.55859H5.03089C5.08254 3.55863 5.1336 3.56956 5.18073 3.59069C5.22785 3.61182 5.26999 3.64266 5.30437 3.6812C5.33876 3.71974 5.36461 3.76511 5.38025 3.81433C5.39589 3.86355 5.40096 3.91553 5.39512 3.96684L4.83392 8.73524C4.82371 8.82498 4.78076 8.9078 4.71328 8.96784C4.6458 9.02787 4.55854 9.0609 4.46822 9.06059H4.46969ZM7.45177 8.7279C7.65806 8.93426 7.77395 9.2141 7.77395 9.50589C7.77395 9.79767 7.65806 10.0775 7.45177 10.2839L6.67305 9.50552L7.45177 8.7279ZM9.53336 11.9018C9.43035 11.9445 9.3385 12.0103 9.26486 12.094L7.97042 10.8022C8.31333 10.4578 8.50585 9.99166 8.50585 9.5057C8.50585 9.01975 8.31333 8.55359 7.97042 8.20925L10.5351 5.64458C10.6007 5.57825 10.6891 5.53939 10.7823 5.53591C10.8755 5.53244 10.9665 5.56461 11.0369 5.62588C11.1407 5.71868 11.2474 5.81331 11.3542 5.90758C11.0073 6.15516 10.7398 6.49812 10.5841 6.89482C10.4284 7.29151 10.3912 7.72488 10.4771 8.1423C10.5629 8.55972 10.7681 8.94323 11.0678 9.24627C11.3674 9.54931 11.7486 9.75883 12.165 9.84941C12.5814 9.93998 13.0152 9.9077 13.4136 9.75649C13.812 9.60529 14.158 9.34165 14.4095 8.99761C14.6609 8.65356 14.8071 8.2439 14.8303 7.81837C14.8534 7.39284 14.7525 6.96975 14.5398 6.60046C14.682 6.36937 14.7527 6.10137 14.743 5.83019C14.7372 5.64636 14.6941 5.46563 14.6163 5.29897C14.5385 5.13232 14.4276 4.98322 14.2904 4.86073L12.6801 3.50064L13.157 3.0238C13.5012 3.3672 13.9676 3.56004 14.4538 3.56004C14.94 3.56004 15.4064 3.3672 15.7506 3.0238L17.3058 4.58013C16.9627 4.9245 16.7701 5.39082 16.7701 5.87695C16.7701 6.36309 16.9627 6.8294 17.3058 7.17377L14.5105 9.96952L9.53336 11.9018ZM11.2665 14.563V18.5977H10.5329V14.563H11.2665ZM21.9037 20.0649H20.4365V19.3313H21.9037V20.0649ZM20.0697 18.6997C19.9586 18.7636 19.8662 18.8555 19.8018 18.9663C19.7375 19.0771 19.7033 19.2028 19.7029 19.331V20.0646H17.5021V19.331C17.5016 19.2028 17.4675 19.0771 17.4031 18.9663C17.3388 18.8555 17.2464 18.7636 17.1353 18.6997V14.563H20.0697V18.6997ZM15.3013 19.3317H16.7685V20.0653H15.3013V19.3317ZM16.4017 18.5981H15.6681V14.5633H16.4017V18.5981ZM14.9345 18.7005C14.8234 18.7643 14.731 18.8562 14.6666 18.967C14.6023 19.0778 14.5681 19.2036 14.5677 19.3317V20.0653H12.3669V19.3317C12.3664 19.2036 12.3323 19.0778 12.2679 18.967C12.2036 18.8562 12.1112 18.7643 12.0001 18.7005V14.563H14.9345V18.7005ZM10.1661 19.3317H11.6333V20.0653H10.1661V19.3317ZM22.2705 22.2661H9.79929V20.7989H22.2705V22.2661ZM21.5369 18.5981H20.8033V14.5633H21.5369V18.5981ZM9.79929 13.8297V12.5866L16.0349 10.1617L22.2705 12.5866V13.8297H9.79929Z" fill="#4B5563"/>
<path d="M16.7715 11.9951H15.3043C15.207 11.9951 15.1137 12.0338 15.0449 12.1026C14.9761 12.1713 14.9375 12.2646 14.9375 12.3619C14.9375 12.4592 14.9761 12.5525 15.0449 12.6213C15.1137 12.6901 15.207 12.7287 15.3043 12.7287H16.7715C16.8688 12.7287 16.9621 12.6901 17.0309 12.6213C17.0997 12.5525 17.1383 12.4592 17.1383 12.3619C17.1383 12.2646 17.0997 12.1713 17.0309 12.1026C16.9621 12.0338 16.8688 11.9951 16.7715 11.9951Z" fill="#4B5563"/>
</svg>
