<svg width="24" height="24" viewBox="0 0 24 24" fill="none" xmlns="http://www.w3.org/2000/svg">
<mask id="mask0_40007837_9397" style="mask-type:luminance" maskUnits="userSpaceOnUse" x="0" y="0" width="24" height="24">
<path d="M24 0H0V24H24V0Z" fill="white"/>
</mask>
<g mask="url(#mask0_40007837_9397)">
<path d="M15.4 5.43C15.4404 5.4127 15.4811 5.3963 15.522 5.3809C16.0388 5.186 16.5 4.7523 16.5 4.2V3C16.5 1.35 15.15 0 13.5 0H3.50002C1.85 0 0.5 1.35 0.5 3V21C0.5 22.65 1.85 24 3.50002 24H13.5C15.15 24 16.5 22.65 16.5 21L16.5001 20.1825C16.5001 19.9719 16.303 19.8365 16.1002 19.78C16.0394 19.7631 15.9502 19.72 15.9502 19.72C15.8902 19.7 15.8422 19.6815 15.7702 19.67C15.7122 19.6608 15.6779 19.6707 15.6202 19.66C15.4828 19.6346 15.4253 19.5621 15.3002 19.5C14.9311 19.3168 14.5001 19.5879 14.5001 20L14.5 21C14.5 21.55 14.05 22 13.5 22H3.50002C2.95 22 2.5 21.55 2.5 21V3C2.5 2.45 2.95 2 3.50002 2H4.00002C4.55002 2 5.00002 2.45 5.00002 3C5.00002 3.55 5.45002 4 6.00002 4H11C11.55 4 12 3.55 12 3C12 2.45 12.45 2 13 2H13.5C14.05 2 14.5 2.45 14.5 3V4.8391C14.5 5.3026 14.9748 5.6143 15.4 5.43Z" fill="#06A6FF"/>
<path d="M13.7965 18.0015V11.8382L7.80005 8.9194V12.2462V14.7581L13.7965 18.0015Z" fill="#FFCC80"/>
<path d="M19.8018 8.9165V12.1089C19.6217 12.0369 19.4237 12.0008 19.2197 12.0008C18.8236 12.0008 18.4396 12.1449 18.133 12.4089L16.1653 14.1251C15.8053 14.4431 15.6013 14.8932 15.6013 15.3672C15.6013 15.8473 15.8053 16.3033 16.1653 16.6154L16.2434 16.6808L13.8071 18.0015V11.8388L19.8018 8.9165Z" fill="#06A6FF"/>
<path d="M19.8014 8.9163L13.8067 11.8387L11.4724 10.7045L10.5003 10.2305L7.80005 8.9163L13.7947 6L16.351 7.2421L17.3711 7.7342L19.8014 8.9163Z" fill="#7ACFFF"/>
<path d="M17.2395 7.6776L11.3097 10.6323V13.6171L10.3694 13.1382V10.1739L16.22 7.1855L17.2395 7.6776Z" fill="white"/>
<path d="M7.80005 8.9194V12.2462V14.7581L13.7965 18.0015V11.8382L11.3146 10.6302L11.3098 10.6326V13.6174L10.3695 13.1385V10.1742L10.3737 10.1724L7.80005 8.9194Z" fill="#7ACFFF"/>
<path d="M18.447 14.9229L19.5157 13.9898C19.7035 13.8266 19.7227 13.5422 19.5589 13.3549C19.3957 13.1671 19.1113 13.1485 18.9234 13.3117L16.9546 15.0303L16.9456 15.0423L16.8676 15.1473L16.8394 15.1887C16.8154 15.244 16.801 15.3046 16.801 15.3694C16.801 15.4336 16.8154 15.4942 16.84 15.55L16.8682 15.5914L16.9462 15.6964L16.9552 15.7084L18.924 17.4264C19.0098 17.5008 19.1149 17.5374 19.2199 17.5374C19.3453 17.5374 19.4701 17.4852 19.5589 17.3832C19.7221 17.196 19.7029 16.9115 19.5157 16.7483L18.4608 15.8278C20.0342 15.8752 21.3009 17.1888 21.3009 18.8054V19.9509C21.3009 20.1993 21.5025 20.4009 21.751 20.4009C21.9994 20.4009 22.201 20.1993 22.201 19.9509V18.8054C22.2016 16.6871 20.5238 14.9619 18.447 14.9229Z" fill="#06A6FF"/>
</g>
</svg>
