<svg width="24" height="24" viewBox="0 0 24 24" fill="none" xmlns="http://www.w3.org/2000/svg">
<mask id="mask0_40007837_9431" style="mask-type:luminance" maskUnits="userSpaceOnUse" x="0" y="0" width="24" height="24">
<path d="M24 0H0V24H24V0Z" fill="white"/>
</mask>
<g mask="url(#mask0_40007837_9431)">
<path d="M15.383 18.6926C15.3828 17.8655 14.7279 17.1869 13.9011 17.1574V17.1562H20.5108C21.4735 17.1564 22.2538 17.9368 22.254 18.8994V22.7461C22.2538 23.2404 22.6328 23.652 23.1253 23.693H17.1259C16.1633 23.6932 15.3828 22.9127 15.383 21.9498V18.6926Z" fill="#0BAA61"/>
<path d="M15.383 21.0711H10.8723C11.6891 20.9874 12.3104 20.2983 12.3106 19.477V18.6926C12.3104 17.8443 12.9981 17.1562 13.8466 17.1562C13.8649 17.1562 13.8827 17.1568 13.9012 17.1574C14.7279 17.1869 15.3828 17.8655 15.383 18.6926V21.0711Z" fill="#0BAA61"/>
<path d="M10.3398 0.303223C10.8588 0.303423 11.2794 0.724153 11.2792 1.24314V2.28731H0.837402V1.24314C0.837402 0.723963 1.25814 0.303223 1.77732 0.303223H10.3398Z" fill="#0BAA61"/>
<path d="M9.1084 16.0603V7.54691C9.6256 7.54691 9.6256 7.89541 10.1431 7.89541C10.6605 7.89541 10.6605 7.54691 11.1779 7.54691C11.2121 7.54671 11.2461 7.54841 11.2798 7.55191C11.6979 7.59431 11.7317 7.89541 12.2128 7.89541C12.7302 7.89541 12.7302 7.54691 13.2476 7.54691C13.7651 7.54691 13.7651 7.89541 14.2825 7.89541C14.7999 7.89541 14.7999 7.54691 15.3179 7.54691C15.8357 7.54691 15.8354 7.89541 16.3528 7.89541C16.87 7.89541 16.8706 7.54691 17.388 7.54691V17.1771H13.9017V17.1783C13.8833 17.1777 13.8654 17.1771 13.8472 17.1771C12.9987 17.1771 12.311 17.8652 12.3112 18.7135V19.4979C12.3112 20.3823 11.5942 21.0993 10.7098 21.0993C9.8252 21.0993 9.1084 20.3823 9.1084 19.4979V16.0603Z" fill="#0BAA61"/>
<path d="M10.1429 7.8946C9.6254 7.8946 9.6254 7.54609 9.1082 7.54609V16.0595H0.837891V2.29688H11.2796V7.5512C11.2459 7.5477 11.2119 7.54589 11.1777 7.54609C10.6603 7.54609 10.6603 7.8946 10.1429 7.8946Z" fill="#0BAA61"/>
<path d="M9.10768 16.0532V19.1021H1.77732C1.25814 19.1021 0.837212 18.6813 0.837402 18.1622V16.0532H9.10768Z" fill="#0BAA61"/>
<path d="M7.02267 17.2749H5.09117C4.92647 17.2749 4.79297 17.4083 4.79297 17.5732C4.79297 17.7378 4.92647 17.8714 5.09117 17.8714H7.02267C7.18727 17.8714 7.32087 17.7378 7.32087 17.5732C7.32087 17.4083 7.18727 17.2749 7.02267 17.2749Z" fill="#FDE7F2"/>
<path d="M23.2042 23.4002H23.1418C22.8081 23.3672 22.5533 23.087 22.552 22.7515V18.9049C22.5506 17.778 21.6375 16.8649 20.5106 16.8635H17.6854V7.5315C17.6854 7.3669 17.5519 7.2333 17.3872 7.2333C17.1406 7.2302 16.8999 7.3094 16.7032 7.4583C16.589 7.5354 16.5199 7.5818 16.352 7.5818C16.1838 7.5818 16.1153 7.5354 16.0011 7.4585C15.5944 7.1584 15.0395 7.1584 14.6325 7.4585C14.5184 7.5354 14.4492 7.5818 14.2817 7.5818C14.1141 7.5818 14.045 7.5354 13.9308 7.4585C13.5243 7.1584 12.9696 7.1584 12.5628 7.4585C12.4485 7.5354 12.3797 7.5818 12.212 7.5818C12.0444 7.5818 11.9753 7.5354 11.8611 7.4585C11.7732 7.3952 11.6778 7.3426 11.5773 7.302V1.23814C11.5767 0.55471 11.023 0.00097 10.3397 0H1.7772C1.09377 0.00078 0.539843 0.55471 0.539062 1.23814V18.1539C0.539843 18.8373 1.09357 19.3912 1.7772 19.392H8.8094V19.4825C8.809 20.0143 9.0319 20.5218 9.4235 20.8814C9.8153 21.2411 10.3397 21.42 10.8696 21.3745H15.0845V21.9553C15.0843 23.0827 15.9982 23.9966 17.1257 23.9964H23.116C23.144 23.9986 23.1727 23.9999 23.2042 23.9999C23.3698 23.9999 23.5041 23.8658 23.5041 23.7C23.5041 23.5343 23.3698 23.4002 23.2042 23.4002ZM9.1076 7.2333C8.9428 7.2333 8.8094 7.3669 8.8094 7.5315V15.7467H1.13551V2.58054H10.9808V7.2487C10.8041 7.2791 10.637 7.3512 10.4933 7.4585C10.3789 7.5354 10.31 7.5818 10.1423 7.5818C9.9747 7.5818 9.9058 7.5354 9.7914 7.4585C9.5949 7.3094 9.3542 7.2302 9.1076 7.2333ZM1.7772 0.59645H10.3397C10.6939 0.59684 10.9806 0.884 10.9808 1.23814V1.98409H1.13551V1.23814C1.1359 0.8838 1.42286 0.59684 1.7772 0.59645ZM1.7772 18.7956C1.42286 18.7952 1.1359 18.5082 1.13551 18.1539V16.3432H8.8094V18.7956H1.7772ZM9.4058 19.4825V7.9183C9.4225 7.929 9.4398 7.9408 9.4582 7.9531C9.865 8.253 10.4197 8.253 10.8265 7.9531C10.9406 7.8762 11.0096 7.8296 11.1771 7.8296C11.201 7.8296 11.2249 7.8305 11.2486 7.8331C11.3673 7.8451 11.428 7.8857 11.528 7.9529C11.9345 8.253 12.4894 8.253 12.896 7.9529C13.0103 7.876 13.0793 7.8296 13.2468 7.8296C13.4146 7.8296 13.4835 7.876 13.5977 7.9529C14.0044 8.253 14.5589 8.253 14.9657 7.9529C15.0799 7.8758 15.149 7.8294 15.3171 7.8294C15.4851 7.8294 15.5536 7.8758 15.668 7.9529C16.0747 8.2528 16.6296 8.2528 17.0364 7.9529C17.0548 7.9404 17.0723 7.9288 17.089 7.9181V16.8635H13.9009C13.8963 16.8635 13.8918 16.8641 13.8872 16.8643C13.8736 16.8639 13.86 16.8635 13.8464 16.8635C12.8331 16.8635 12.012 17.685 12.0122 18.6981V19.4825C12.0145 20.1517 11.5076 20.713 10.8416 20.7789C10.4748 20.8165 10.1092 20.6969 9.8355 20.45C9.5617 20.2028 9.4056 19.8512 9.4058 19.4825ZM12.1007 20.7783C12.4283 20.4265 12.6098 19.9632 12.6086 19.4825V18.6981C12.6086 18.3628 12.7445 18.0416 12.9857 17.8083C13.2268 17.5751 13.5522 17.4497 13.8875 17.4607H13.8905C14.5578 17.4819 15.087 18.0304 15.0845 18.6981V20.7783H12.1007ZM16.104 22.9771C15.8322 22.7066 15.6798 22.3387 15.681 21.9553V18.6981C15.6823 18.2401 15.5117 17.7984 15.203 17.4599H20.5106C21.3082 17.4609 21.9548 18.1073 21.9555 18.9049V22.7515C21.9557 22.9806 22.0192 23.205 22.1394 23.4002H17.1257C16.7424 23.4013 16.3743 23.2489 16.104 22.9771Z" fill="#E7F5FF"/>
<path d="M11.7285 11.08C11.7285 11.2448 11.8621 11.3782 12.0268 11.3782H15.94C16.1046 11.3782 16.2382 11.2448 16.2382 11.08C16.2382 10.9153 16.1046 10.7817 15.94 10.7817H12.0268C11.8621 10.7817 11.7285 10.9153 11.7285 11.08Z" fill="#E7F5FF"/>
<path d="M10.5565 11.3777H11.1902C11.3549 11.3777 11.4885 11.2443 11.4885 11.0795C11.4885 10.9148 11.3549 10.7812 11.1902 10.7812H10.5565C10.3919 10.7812 10.2583 10.9148 10.2583 11.0795C10.2583 11.2443 10.3919 11.3777 10.5565 11.3777Z" fill="#0BAA61"/>
<path d="M15.94 12.4692H12.0268C11.8621 12.4692 11.7285 12.6028 11.7285 12.7675C11.7285 12.9321 11.8621 13.0657 12.0268 13.0657H15.94C16.1046 13.0657 16.2382 12.9321 16.2382 12.7675C16.2382 12.6028 16.1046 12.4692 15.94 12.4692Z" fill="#E7F5FF"/>
<path d="M10.5565 13.0652H11.1902C11.3549 13.0652 11.4885 12.9316 11.4885 12.767C11.4885 12.6023 11.3549 12.4688 11.1902 12.4688H10.5565C10.3919 12.4688 10.2583 12.6023 10.2583 12.767C10.2583 12.9316 10.3919 13.0652 10.5565 13.0652Z" fill="#0BAA61"/>
<path d="M15.94 14.1118H12.0268C11.8621 14.1118 11.7285 14.2454 11.7285 14.4101C11.7285 14.5747 11.8621 14.7083 12.0268 14.7083H15.94C16.1046 14.7083 16.2382 14.5747 16.2382 14.4101C16.2382 14.2454 16.1046 14.1118 15.94 14.1118Z" fill="#E7F5FF"/>
<path d="M11.4885 14.4106C11.4885 14.2459 11.3549 14.1123 11.1902 14.1123H10.5565C10.3919 14.1123 10.2583 14.2459 10.2583 14.4106C10.2583 14.5752 10.3919 14.7088 10.5565 14.7088H11.1902C11.3549 14.7088 11.4885 14.5752 11.4885 14.4106Z" fill="#0BAA61"/>
<path d="M10.5565 9.7151H13.3562C13.5211 9.7151 13.6545 9.5817 13.6545 9.4169C13.6545 9.2522 13.5211 9.1187 13.3562 9.1187H10.5565C10.3919 9.1187 10.2583 9.2522 10.2583 9.4169C10.2583 9.5817 10.3919 9.7151 10.5565 9.7151Z" fill="#0BAA61"/>
<path d="M17.5024 19.2482C17.7097 19.2482 17.8779 19.4161 17.8783 19.6233C17.8783 19.7881 18.0118 19.9215 18.1765 19.9215C18.3411 19.9215 18.4747 19.7881 18.4747 19.6233C18.4739 19.2017 18.2019 18.8284 17.8006 18.6989V18.5795C17.8006 18.4148 17.6672 18.2812 17.5024 18.2812C17.3377 18.2812 17.2041 18.4148 17.2041 18.5795V18.6989C16.749 18.8457 16.4683 19.3019 16.5427 19.7745C16.617 20.2469 17.0242 20.595 17.5024 20.595C17.7097 20.595 17.8777 20.763 17.8777 20.9703C17.8777 21.1775 17.7097 21.3456 17.5024 21.3456C17.2952 21.3456 17.1273 21.1775 17.1273 20.9703C17.1273 20.8055 16.9937 20.6721 16.829 20.6721C16.6642 20.6721 16.5308 20.8055 16.5308 20.9703C16.5314 21.3918 16.8032 21.765 17.2041 21.8947V22.045C17.2041 22.2096 17.3377 22.3432 17.5024 22.3432C17.6672 22.3432 17.8006 22.2096 17.8006 22.045V21.8949C18.2563 21.7483 18.5374 21.2918 18.463 20.8191C18.3887 20.3463 17.981 19.9982 17.5024 19.9986C17.2952 19.9986 17.1273 19.8306 17.1273 19.6233C17.1273 19.4161 17.2952 19.2482 17.5024 19.2482Z" fill="#E7F5FF"/>
<path d="M20.6584 21.375H19.5436C19.3789 21.375 19.2454 21.5084 19.2454 21.6732C19.2454 21.8379 19.3789 21.9714 19.5436 21.9714H20.6584C20.8231 21.9714 20.9567 21.8379 20.9567 21.6732C20.9567 21.5084 20.8231 21.375 20.6584 21.375Z" fill="#E7F5FF"/>
<path d="M20.6597 20.0376H19.5448C19.3802 20.0376 19.2466 20.171 19.2466 20.3358C19.2466 20.5005 19.3802 20.634 19.5448 20.634H20.6597C20.8243 20.634 20.9579 20.5005 20.9579 20.3358C20.9579 20.171 20.8243 20.0376 20.6597 20.0376Z" fill="#E7F5FF"/>
<path d="M20.6597 18.6782H19.5448C19.3802 18.6782 19.2466 18.8118 19.2466 18.9764C19.2466 19.1413 19.3802 19.2747 19.5448 19.2747H20.6597C20.8243 19.2747 20.9579 19.1413 20.9579 18.9764C20.9579 18.8118 20.8243 18.6782 20.6597 18.6782Z" fill="#E7F5FF"/>
<path d="M7.5 2C7.77614 2 8 1.77614 8 1.5C8 1.22386 7.77614 1 7.5 1C7.22386 1 7 1.22386 7 1.5C7 1.77614 7.22386 2 7.5 2Z" fill="#E7F5FF"/>
</g>
</svg>
