<svg width="40" height="40" viewBox="0 0 40 40" fill="none" xmlns="http://www.w3.org/2000/svg">
<rect width="40" height="40" rx="20" fill="#2CB9B0" fill-opacity="0.15"/>
<path fill-rule="evenodd" clip-rule="evenodd" d="M10.6977 10C10.5126 10 10.3352 10.0735 10.2043 10.2044C10.0735 10.3352 9.99999 10.5127 10 10.6977L10.0012 28.8487C10.0012 29.0939 10.13 29.3211 10.3403 29.4472C10.5506 29.5731 10.8116 29.5795 11.0279 29.4639L14.1828 27.7769L17.7849 29.9032C18.0037 30.0323 18.2753 30.0323 18.4941 29.9032L22.0963 27.7769L25.2525 29.464C25.4687 29.5795 25.7298 29.5731 25.9401 29.4471C26.1503 29.321 26.2791 29.0939 26.2791 28.8487V16.9767H30V12.5581C30 11.1453 28.8547 10 27.4419 10H10.6977ZM26.2791 12.5581C26.2791 11.9159 26.7996 11.3953 27.4419 11.3953C28.0841 11.3953 28.6047 11.9159 28.6047 12.5581V15.5814H26.2791V12.5581ZM14.4186 15.1163H21.8605V13.7209H14.4186V15.1163ZM14.4186 17.4419H17.2093V18.8372H14.4186V17.4419ZM18.3721 19.7093C18.3721 18.8208 18.9916 18.1553 19.7674 17.9022V17.2093H21.1628V17.9002C21.7299 18.0834 22.2043 18.4873 22.428 19.041L21.1341 19.5636C21.0621 19.3853 20.8246 19.186 20.4651 19.186C19.9894 19.186 19.7674 19.5049 19.7674 19.7093C19.7674 19.9137 19.9894 20.2326 20.4651 20.2326C21.5306 20.2326 22.5581 21.007 22.5581 22.1512C22.5581 23.0396 21.9386 23.7051 21.1628 23.9582V24.6512H19.7674V23.9603C19.2004 23.777 18.726 23.3731 18.5022 22.8194L19.7961 22.2968C19.8681 22.4752 20.1057 22.6744 20.4651 22.6744C20.9408 22.6744 21.1628 22.3555 21.1628 22.1512C21.1628 21.9468 20.9408 21.6279 20.4651 21.6279C19.3996 21.6279 18.3721 20.8535 18.3721 19.7093Z" fill="#2CB9B0"/>
</svg>
