<svg width="22" height="19" viewBox="0 0 22 19" fill="none" xmlns="http://www.w3.org/2000/svg">
<mask id="mask0_40007837_9449" style="mask-type:luminance" maskUnits="userSpaceOnUse" x="0" y="0" width="22" height="19">
<path d="M21.7143 0H0V18.819H21.7143V0Z" fill="white"/>
</mask>
<g mask="url(#mask0_40007837_9449)">
<path d="M8.2176 9.7078C5.7023 9.1403 4.3893 6.8552 4.7688 4.6819C4.9516 3.6152 5.527 2.6556 6.3816 1.9918C7.2362 1.328 8.3082 1.0081 9.3868 1.0951C11.7118 1.2673 13.5559 3.2798 13.3976 5.7734C13.4544 5.7789 13.5111 5.7891 13.5685 5.7897C14.1262 5.7897 14.6839 5.7952 15.2416 5.7855C15.3426 5.7824 15.4393 5.7439 15.5147 5.6767C17.1231 4.0768 18.7283 2.4734 20.3303 0.8666C20.3654 0.8316 20.3974 0.7935 20.4626 0.7216H19.2735C18.9793 0.7216 18.8258 0.6007 18.8216 0.3681C18.8168 0.1263 18.9739 0 19.2814 0C19.9448 0 20.6081 0 21.2711 0C21.5883 0 21.7122 0.1209 21.7134 0.4321C21.7134 1.111 21.7134 1.7895 21.7134 2.4676C21.7134 2.7377 21.5804 2.8906 21.3545 2.8906C21.1285 2.8906 20.9919 2.7377 20.9919 2.4676C20.9919 2.0778 20.9919 1.6874 20.9919 1.2522C20.9043 1.3326 20.8445 1.3828 20.7889 1.4384C19.1724 3.056 17.5586 4.6733 15.9473 6.2901C15.8803 6.365 15.7975 6.4241 15.705 6.4633C15.6125 6.5025 15.5124 6.5207 15.412 6.5168C14.7039 6.5047 13.9957 6.5125 13.2707 6.5125C13.2302 6.6334 13.1964 6.7543 13.1498 6.8715C12.4626 8.6008 11.1938 9.5678 9.3433 9.7724C9.2435 9.788 9.151 9.8343 9.0786 9.9048C8.4615 10.5112 7.849 11.1232 7.2412 11.7408C7.178 11.8093 7.1006 11.8631 7.0143 11.8983C6.9281 11.9335 6.8352 11.9492 6.7421 11.9445C5.9365 11.9356 5.1309 11.9356 4.3253 11.9445C4.2107 11.95 4.1018 11.9958 4.0177 12.0738C2.9249 13.1556 1.8359 14.2415 0.750728 15.3313C0.696848 15.3936 0.636029 15.4496 0.569459 15.4981C0.501479 15.548 0.417359 15.5708 0.333489 15.5621C0.249609 15.5534 0.171978 15.5138 0.115699 15.451C0.0533285 15.3944 0.0141188 15.3167 0.00563877 15.2329C-0.00284123 15.149 0.0200091 15.0651 0.0697791 14.9971C0.113919 14.9362 0.164569 14.8802 0.220829 14.8303C1.3564 13.6945 2.4909 12.5583 3.6244 11.4217C3.6868 11.3526 3.7636 11.298 3.8494 11.2619C3.9353 11.2257 4.028 11.2089 4.121 11.2126C4.9267 11.2223 5.7323 11.2223 6.5379 11.2126C6.6526 11.208 6.7621 11.1638 6.8479 11.0875C7.2666 10.6856 7.6732 10.271 8.0829 9.8601C8.127 9.8141 8.1687 9.7634 8.2176 9.7078ZM9.0369 9.0472C10.9928 9.0665 12.6459 7.4396 12.6683 5.4737C12.6912 3.492 11.084 1.8366 9.1088 1.8082C8.145 1.7976 7.2164 2.1703 6.5272 2.8444C5.8381 3.5186 5.4448 4.4389 5.434 5.4029C5.4159 7.3883 7.0364 9.0273 9.0369 9.0472Z" fill="#2CB9B0"/>
<path d="M9.03626 9.04829C7.03566 9.02829 5.41516 7.38929 5.43276 5.40399C5.44356 4.43979 5.83686 3.51939 6.52616 2.84529C7.21546 2.17119 8.14416 1.7985 9.10816 1.8093C11.0834 1.8377 12.6906 3.493 12.6676 5.4747C12.6453 7.4407 10.9921 9.06759 9.03626 9.04829ZM9.40966 3.61809C9.40966 3.46279 9.41756 3.342 9.40966 3.2229C9.40466 3.1314 9.36376 3.04559 9.29596 2.98399C9.22806 2.92249 9.13866 2.89019 9.04716 2.89409C8.95586 2.89229 8.86756 2.92639 8.80116 2.98899C8.73476 3.05159 8.69546 3.13769 8.69186 3.22889C8.68306 3.31899 8.68306 3.40969 8.69186 3.49969C8.70516 3.62059 8.65616 3.68099 8.54746 3.74139C8.33786 3.84859 8.16906 4.02129 8.06676 4.23329C7.96446 4.44529 7.93426 4.68489 7.98066 4.91569C8.02946 5.15359 8.15586 5.36849 8.33996 5.52669C8.52416 5.68489 8.75576 5.7774 8.99816 5.7896C9.24836 5.8077 9.40786 5.9491 9.40786 6.1522C9.40786 6.3643 9.23686 6.50999 8.97526 6.51479C8.75646 6.51849 8.53776 6.51059 8.31966 6.51779C8.27246 6.51659 8.22556 6.52499 8.18176 6.54249C8.13796 6.55999 8.09826 6.5863 8.06496 6.6198C8.03176 6.6532 8.00566 6.69309 7.98836 6.73699C7.97106 6.78089 7.96286 6.82789 7.96436 6.87499C7.96266 6.92219 7.97056 6.96929 7.98746 7.01339C8.00446 7.05749 8.03016 7.09769 8.06306 7.13159C8.09596 7.16549 8.13546 7.19229 8.17906 7.21059C8.22256 7.22879 8.26936 7.238 8.31666 7.2376C8.43446 7.2437 8.55226 7.2376 8.68826 7.2376C8.68826 7.3827 8.68216 7.50169 8.68826 7.62079C8.69056 7.71199 8.72856 7.79859 8.79386 7.86219C8.85926 7.92579 8.94686 7.96119 9.03806 7.96109C9.08516 7.96319 9.13216 7.95589 9.17636 7.93959C9.22056 7.92319 9.26106 7.89819 9.29536 7.86589C9.32976 7.83359 9.35716 7.7947 9.37616 7.7516C9.39526 7.7084 9.40536 7.66189 9.40606 7.61479C9.41206 7.52469 9.39036 7.42979 9.41326 7.34519C9.43066 7.25769 9.47846 7.17919 9.54806 7.12339C9.99456 6.85689 10.223 6.38909 10.116 5.92379C10.0018 5.42819 9.61756 5.1067 9.08886 5.065C8.84716 5.0456 8.68336 4.89269 8.69186 4.69029C8.70036 4.48779 8.86406 4.34519 9.11476 4.34039C9.34076 4.33609 9.56676 4.3458 9.79276 4.3367C9.83996 4.3364 9.88656 4.32649 9.92986 4.30749C9.97306 4.28859 10.012 4.26099 10.0442 4.22649C10.0765 4.19199 10.1013 4.15129 10.1173 4.10689C10.1333 4.06239 10.1401 4.01519 10.1372 3.96809C10.137 3.87679 10.1012 3.78919 10.0373 3.72399C9.97326 3.65879 9.88636 3.62129 9.79516 3.61939C9.67366 3.61449 9.55466 3.61809 9.40966 3.61809Z" fill="#2CB9B0"/>
<path d="M9.40961 3.61811C9.55461 3.61811 9.67361 3.61201 9.79201 3.61811C9.88331 3.62001 9.97021 3.65751 10.0341 3.72271C10.098 3.78791 10.1339 3.87551 10.134 3.96681C10.1369 4.01391 10.1301 4.06111 10.1142 4.10561C10.0982 4.15001 10.0733 4.19071 10.0411 4.22521C10.0089 4.25971 9.96991 4.28731 9.92671 4.30621C9.88351 4.32521 9.83681 4.33511 9.78961 4.33541C9.56361 4.34451 9.33771 4.33541 9.11171 4.33911C8.86271 4.34391 8.69841 4.48351 8.68871 4.68901C8.67911 4.89451 8.84281 5.04431 9.08571 5.06371C9.61561 5.10541 9.99991 5.42631 10.1129 5.92251C10.2198 6.38781 9.99201 6.85561 9.54491 7.12211C9.47701 7.17761 9.43051 7.25491 9.41321 7.34091C9.39021 7.42551 9.41321 7.52221 9.40591 7.61041C9.40531 7.65761 9.39511 7.70411 9.37611 7.74721C9.35711 7.79041 9.32961 7.82931 9.29531 7.86161C9.26101 7.89391 9.22051 7.91891 9.17631 7.93531C9.13211 7.95161 9.08511 7.95891 9.03801 7.95671C8.94681 7.95691 8.85921 7.92141 8.79381 7.85791C8.72841 7.79431 8.69051 7.70771 8.68811 7.61651C8.68091 7.49561 8.68811 7.37841 8.68811 7.23331C8.55221 7.23331 8.43441 7.23821 8.31651 7.23331C8.26931 7.23371 8.22251 7.22451 8.17891 7.20621C8.13531 7.18801 8.09591 7.16121 8.06301 7.12731C8.03011 7.09341 8.00441 7.05321 7.98741 7.00911C7.97041 6.96501 7.96261 6.91791 7.96431 6.87071C7.96351 6.82391 7.97231 6.77731 7.99001 6.73391C8.00781 6.69061 8.03411 6.65121 8.06751 6.61841C8.10091 6.58551 8.14061 6.55971 8.18431 6.54261C8.22791 6.52551 8.27451 6.51751 8.32141 6.51901C8.53951 6.51171 8.75821 6.51901 8.97691 6.51601C9.23861 6.51171 9.40901 6.36611 9.40961 6.15331C9.40961 5.95031 9.25011 5.80891 8.99991 5.79071C8.75751 5.77921 8.52581 5.68751 8.34121 5.53001C8.15661 5.37251 8.02951 5.15811 7.98001 4.92051C7.93351 4.68971 7.96371 4.45001 8.06611 4.23811C8.16841 4.02611 8.33721 3.85331 8.54671 3.74621C8.65551 3.68581 8.70441 3.62531 8.69121 3.50451C8.68241 3.41441 8.68241 3.32371 8.69121 3.23371C8.69481 3.14251 8.73401 3.05631 8.80041 2.99371C8.86691 2.93111 8.95521 2.89711 9.04641 2.89891C9.13801 2.89491 9.22741 2.92721 9.29521 2.98881C9.36311 3.05031 9.40401 3.13621 9.40901 3.22771C9.41741 3.34431 9.40961 3.46521 9.40961 3.61811Z" fill="white"/>
<path d="M0.5 17.5255C0.5 17.2494 0.72386 17.0255 1 17.0255H1.8323C2.1084 17.0255 2.3323 17.2494 2.3323 17.5255V18.3863H0.5V17.5255Z" fill="#2CB9B0" stroke="#2CB9B0"/>
<path d="M4.27588 16.1085C4.27588 15.8324 4.49968 15.6085 4.77588 15.6085H5.60818C5.88428 15.6085 6.10818 15.8324 6.10818 16.1085V18.3858H4.27588V16.1085Z" fill="#2CB9B0" stroke="#2CB9B0"/>
<path d="M8.05298 14.6931C8.05298 14.417 8.27678 14.1931 8.55298 14.1931H9.38528C9.66138 14.1931 9.88528 14.417 9.88528 14.6931V18.3869H8.05298V14.6931Z" fill="#2CB9B0" stroke="#2CB9B0"/>
<path d="M11.8291 11.8596C11.8291 11.5835 12.053 11.3596 12.3291 11.3596H13.1614C13.4375 11.3596 13.6614 11.5835 13.6614 11.8596V18.3863H11.8291V11.8596Z" fill="#2CB9B0" stroke="#2CB9B0"/>
<path d="M15.6062 9.0273C15.6062 8.7512 15.8301 8.5273 16.1062 8.5273H16.9385C17.2146 8.5273 17.4385 8.7512 17.4385 9.0273V18.387H15.6062V9.0273Z" fill="#2CB9B0" stroke="#2CB9B0"/>
<path d="M19.3821 6.1937C19.3821 5.9176 19.6059 5.6937 19.8821 5.6937H20.7144C20.9905 5.6937 21.2144 5.9176 21.2144 6.1937V18.3864H19.3821V6.1937Z" fill="#2CB9B0" stroke="#2CB9B0"/>
</g>
</svg>
