<svg width="22" height="20" viewBox="0 0 22 20" fill="none" xmlns="http://www.w3.org/2000/svg">
<path d="M8.1033 8.83193C8.3726 8.94463 8.6519 9.03163 8.9375 9.09193V19.4052C8.7623 19.3601 8.5919 19.2984 8.4283 19.221L1.9283 16.3285C1.35442 16.0731 0.86684 15.6567 0.52461 15.1299C0.18237 14.6031 0.00016 13.9884 0 13.3602V6.14523C0.00087 5.85593 0.0409502 5.56803 0.11917 5.28943L8.1033 8.83193ZM18.5575 3.85943C18.2756 3.57093 17.9409 3.33923 17.5717 3.17693L11.0717 0.28441C10.6563 0.0969495 10.2057 0 9.75 0C9.2943 0 8.8437 0.0969495 8.4283 0.28441L1.9283 3.17693C1.55908 3.33923 1.22441 3.57093 0.9425 3.85943L8.7533 7.33693C9.0672 7.47613 9.4067 7.54813 9.75 7.54813C10.0933 7.54813 10.4329 7.47613 10.7467 7.33693L18.5575 3.85943ZM11.4389 14.2767C11.6521 12.9065 12.3338 11.6527 13.368 10.729C14.4022 9.80523 15.7247 9.26883 17.1102 9.21103C17.7735 9.18403 18.4366 9.27013 19.071 9.46563C19.1197 9.48283 19.1718 9.48823 19.223 9.48133C19.2741 9.47443 19.3229 9.45533 19.3653 9.42583C19.4076 9.39623 19.4424 9.35703 19.4665 9.31143C19.4907 9.26583 19.5037 9.21503 19.5043 9.16343V6.14523C19.5035 5.85593 19.4634 5.56803 19.3852 5.28943L11.401 8.83193C11.13 8.93973 10.8511 9.02663 10.5668 9.09193V19.4052L10.608 19.4312L12.1247 18.7476C12.1666 18.728 12.2039 18.6996 12.234 18.6643C12.2641 18.6291 12.2863 18.5878 12.2991 18.5433C12.3119 18.4988 12.3151 18.452 12.3083 18.4062C12.3016 18.3603 12.2852 18.3164 12.2601 18.2775C11.5188 17.0842 11.2276 15.6655 11.4389 14.2767ZM21.6667 15.1694C21.6667 16.0264 21.4125 16.8642 20.9364 17.5769C20.4602 18.2895 19.7834 18.8449 18.9916 19.1729C18.1998 19.5008 17.3285 19.5867 16.4879 19.4194C15.6474 19.2522 14.8752 18.8395 14.2692 18.2335C13.6632 17.6275 13.2505 16.8554 13.0833 16.0148C12.9161 15.1742 13.0019 14.3029 13.3299 13.5111C13.6578 12.7193 14.2133 12.0425 14.9259 11.5663C15.6385 11.0902 16.4763 10.836 17.3333 10.836C18.4826 10.836 19.5848 11.2926 20.3975 12.1052C21.2101 12.9179 21.6667 14.0201 21.6667 15.1694ZM18.1025 15.1694L18.7958 14.4652C18.8465 14.4156 18.8867 14.3565 18.9144 14.2912C18.942 14.2259 18.9564 14.1558 18.9567 14.0849C18.9571 14.014 18.9434 13.9438 18.9164 13.8783C18.8895 13.8127 18.8498 13.7531 18.7997 13.703C18.7496 13.6529 18.69 13.6132 18.6245 13.5863C18.5589 13.5593 18.4887 13.5456 18.4178 13.546C18.3469 13.5463 18.2768 13.5607 18.2115 13.5884C18.1463 13.616 18.0871 13.6563 18.0375 13.7069L17.3333 14.4002L16.6292 13.7069C16.5796 13.6563 16.5204 13.616 16.4551 13.5884C16.3899 13.5607 16.3198 13.5463 16.2489 13.546C16.178 13.5456 16.1078 13.5593 16.0422 13.5863C15.9767 13.6132 15.9171 13.6529 15.867 13.703C15.8169 13.7531 15.7772 13.8127 15.7502 13.8783C15.7233 13.9438 15.7096 14.014 15.7099 14.0849C15.7103 14.1558 15.7247 14.2259 15.7523 14.2912C15.7799 14.3565 15.8202 14.4156 15.8708 14.4652L16.5642 15.1694L15.8708 15.8735C15.8194 15.9224 15.7785 15.9812 15.7506 16.0464C15.7226 16.1116 15.7082 16.1818 15.7082 16.2527C15.7082 16.3236 15.7226 16.3938 15.7506 16.459C15.7785 16.5242 15.8194 16.583 15.8708 16.6319C15.9197 16.6833 15.9785 16.7242 16.0437 16.7522C16.1089 16.7801 16.1791 16.7945 16.25 16.7945C16.3209 16.7945 16.3911 16.7801 16.4563 16.7522C16.5215 16.7242 16.5803 16.6833 16.6292 16.6319L17.3333 15.9385L18.0375 16.6319C18.0864 16.6833 18.1452 16.7242 18.2104 16.7522C18.2756 16.7801 18.3457 16.7945 18.4167 16.7945C18.4876 16.7945 18.5578 16.7801 18.623 16.7522C18.6881 16.7242 18.747 16.6833 18.7958 16.6319C18.8472 16.583 18.8882 16.5242 18.9161 16.459C18.9441 16.3938 18.9585 16.3236 18.9585 16.2527C18.9585 16.1818 18.9441 16.1116 18.9161 16.0464C18.8882 15.9812 18.8472 15.9224 18.7958 15.8735L18.1025 15.1694Z" fill="#F68A3D"/>
</svg>
