<svg width="22" height="22" viewBox="0 0 22 22" fill="none" xmlns="http://www.w3.org/2000/svg">
<path fill-rule="evenodd" clip-rule="evenodd" d="M2.0001 3C2.0001 2.4477 2.4478 2 3.0001 2H19.0001C19.5524 2 20.0001 2.4477 20.0001 3V6.5C20.0001 6.689 19.9997 6.8726 19.9869 7.0547C19.974 7.2389 19.9504 7.3821 19.9191 7.4843L19.9128 7.5038C19.4014 7.548 19.0001 7.9771 19.0001 8.5C19.0001 9.0523 19.4478 9.5 20.0001 9.5C20.4814 9.5 20.9167 9.3397 21.2561 9.0268C21.5726 8.735 21.7386 8.3726 21.8311 8.0709C22.001 7.517 22.0004 6.8889 22.0001 6.5422V6.5V3C22.0001 1.34315 20.657 0 19.0001 0H3.0001C1.3432 0 6.10285e-05 1.34315 6.10285e-05 3V6.5L3.05109e-05 6.5422C-0.000299489 6.8889 -0.000878856 7.517 0.169031 8.0709C0.261601 8.3726 0.427571 8.735 0.744051 9.0268C1.08346 9.3397 1.51872 9.5 2.0001 9.5C2.5523 9.5 3.0001 9.0523 3.0001 8.5C3.0001 7.9771 2.5987 7.548 2.0873 7.5037L2.0811 7.4843C2.0497 7.3821 2.0262 7.2389 2.0132 7.0547C2.0004 6.8726 2.0001 6.689 2.0001 6.5V3ZM7.0641 4.25C5.737 4.25 4.6257 5.3206 4.4936 6.7264L3.2537 19.9254C3.2292 20.1862 3.3344 20.4417 3.5312 20.5993C3.728 20.7569 3.9878 20.7937 4.2164 20.6964L6.1837 19.8587L8.2116 21.5857C8.4689 21.8048 8.8346 21.8048 9.0919 21.5857L11.0003 19.9605L12.9086 21.5857C13.1659 21.8048 13.5316 21.8048 13.7889 21.5857L15.8168 19.8587L17.784 20.6964C18.0127 20.7937 18.2725 20.7569 18.4693 20.5993C18.6661 20.4417 18.7713 20.1862 18.7468 19.9254L17.5069 6.7264C17.3748 5.3206 16.2635 4.25 14.9363 4.25H7.0641ZM8 8.25C7.5858 8.25 7.25 8.5858 7.25 9C7.25 9.4142 7.5858 9.75 8 9.75H10.5C10.9143 9.75 11.25 9.4142 11.25 9C11.25 8.5858 10.9143 8.25 10.5 8.25H8ZM7.25 13C7.25 12.5858 7.5858 12.25 8 12.25H13.5C13.9143 12.25 14.25 12.5858 14.25 13C14.25 13.4142 13.9143 13.75 13.5 13.75H8C7.5858 13.75 7.25 13.4142 7.25 13Z" fill="#2CB9B0"/>
</svg>
