<svg width="24" height="24" viewBox="0 0 24 24" fill="none" xmlns="http://www.w3.org/2000/svg">
<mask id="mask0_40007837_9468" style="mask-type:luminance" maskUnits="userSpaceOnUse" x="0" y="0" width="24" height="24">
<path d="M24 0H0V24H24V0Z" fill="white"/>
</mask>
<g mask="url(#mask0_40007837_9468)">
<path d="M4.271 3.6611H10.0474C10.2507 3.6611 10.4541 3.7426 10.6168 3.9052L14.0337 7.3222V11.3899H6.2235C6.0201 11.3899 5.8167 11.3085 5.654 11.1458L4.271 9.7628" fill="#94DADA"/>
<mask id="mask1_40007837_9468" style="mask-type:luminance" maskUnits="userSpaceOnUse" x="4" y="3" width="11" height="9">
<path d="M4.271 3.6611H10.0474C10.2507 3.6611 10.4541 3.7426 10.6168 3.9052L14.0337 7.3222V11.3899H6.2235C6.0201 11.3899 5.8167 11.3085 5.654 11.1458L4.271 9.7628" fill="white"/>
</mask>
<g mask="url(#mask1_40007837_9468)">
<path d="M14.0338 7.3222H15.0338V6.9079L14.7409 6.615L14.0338 7.3222ZM14.0338 11.3899V12.3899H15.0338V11.3899H14.0338ZM4.27106 4.6611H10.0475V2.66113H4.27106V4.6611ZM10.0475 4.6611C10.015 4.6611 9.98466 4.6545 9.95926 4.6438C9.93346 4.6329 9.91747 4.62 9.90977 4.6123L11.324 3.1981C10.9799 2.85406 10.5246 2.66113 10.0475 2.66113V4.6611ZM9.90977 4.6123L13.3267 8.0293L14.7409 6.615L11.324 3.1981L9.90977 4.6123ZM13.0338 7.3222V11.3899H15.0338V7.3222H13.0338ZM14.0338 10.3899H6.22357V12.3899H14.0338V10.3899ZM6.22357 10.3899C6.25597 10.3899 6.28626 10.3966 6.31176 10.4073C6.33746 10.4181 6.35357 10.4311 6.36117 10.4387L4.94697 11.8529C5.29107 12.197 5.74637 12.3899 6.22357 12.3899V10.3899ZM6.36117 10.4387L4.97816 9.0557L3.56396 10.4699L4.94697 11.8529L6.36117 10.4387Z" fill="#008788"/>
</g>
<path d="M22.9825 24.0001H1.01644C0.568941 24.0001 0.202881 23.6341 0.202881 23.1866V20.7459C0.202881 20.2984 0.568941 19.9323 1.01644 19.9323H10.4538C10.6572 19.9323 10.8606 19.8509 11.0233 19.6882L12.5689 18.1425C12.7316 17.9799 12.935 17.8984 13.1384 17.8984H22.9825C23.43 17.8984 23.7961 18.2645 23.7961 18.712V23.1866C23.7961 23.6341 23.43 24.0001 22.9825 24.0001Z" fill="#94DADA"/>
<path d="M0.202881 4.25439C0.202881 3.70209 0.650601 3.25439 1.20288 3.25439H3.2707C3.823 3.25439 4.2707 3.70209 4.2707 4.25439V8.76289C4.2707 9.31519 3.823 9.76289 3.2707 9.76289H1.20288C0.650601 9.76289 0.202881 9.31519 0.202881 8.76289V4.25439Z" fill="#008788"/>
<path d="M9.15188 7.5723H19.7282C20.0376 7.5723 20.2918 7.8264 20.2918 8.1358V14.6443C20.2918 14.9537 20.0376 15.2079 19.7282 15.2079H9.15188C8.84248 15.2079 8.58838 14.9537 8.58838 14.6443V8.1358C8.58838 7.8264 8.84248 7.5723 9.15188 7.5723Z" fill="#94DADA" stroke="#008788" stroke-width="0.5"/>
<path d="M1.42383 3.25439H2.23739V6.91539H1.42383V3.25439Z" fill="white"/>
<path d="M1.42383 7.72899H2.23739V8.54259H1.42383V7.72899Z" fill="white"/>
<path d="M8.6665 9.3335H19.9998V11.3335H8.6665V9.3335Z" fill="#CCEBEF"/>
<path d="M11.6741 22.7796H0.202881V21.9661H11.6741C11.7961 21.9661 11.8775 21.9253 11.9588 21.8441L13.9114 19.8915C14.1553 19.6473 14.4402 19.5254 14.7655 19.5254H16.0673V20.3389H14.7655C14.6436 20.3389 14.5621 20.3797 14.4809 20.4609L12.5282 22.4136C12.2843 22.6577 11.9995 22.7796 11.6741 22.7796Z" fill="#008788"/>
<path d="M8.51612 7.14519L8.44292 7.07189H8.33932H6.55542V5.94479H9.04932L11.6202 8.51569C11.8479 8.74339 11.8479 9.15469 11.6202 9.38249C11.3925 9.61019 10.9811 9.61019 10.7534 9.38249L8.51612 7.14519Z" fill="#94DADA" stroke="#008788" stroke-width="0.5"/>
</g>
</svg>
