<svg width="24" height="24" viewBox="0 0 24 24" fill="none" xmlns="http://www.w3.org/2000/svg">
<path d="M13.6 10.9555C16.251 10.9555 18.4 8.80642 18.4 6.15545C18.4 3.50449 16.251 1.35545 13.6 1.35545C10.9491 1.35545 8.80005 3.50449 8.80005 6.15545C8.80005 8.80642 10.9491 10.9555 13.6 10.9555Z" fill="white"/>
<path d="M8.49972 23.4975C10.1062 23.4975 11.4086 22.1951 11.4086 20.5886C11.4086 18.9821 10.1062 17.6797 8.49972 17.6797C6.89322 17.6797 5.59082 18.9821 5.59082 20.5886C5.59082 22.1951 6.89322 23.4975 8.49972 23.4975Z" fill="#FF722C"/>
<path d="M17.8212 17.6511C16.2068 17.4922 14.7694 18.6721 14.6105 20.2864C14.4517 21.9008 15.6315 23.3382 17.2459 23.4971C17.4372 23.5159 17.6299 23.5159 17.8212 23.4971C19.4355 23.3382 20.6154 21.9008 20.4565 20.2864C20.3193 18.8917 19.2158 17.7883 17.8212 17.6511Z" fill="#FF722C"/>
<path d="M23.8076 6.58076C23.6631 6.36436 23.4182 6.23656 23.1581 6.24186H19.9385V6.18536C19.9387 2.76946 17.1699 0.000220013 13.754 1.31091e-08C10.3382 -0.000219987 7.5689 2.76866 7.5687 6.18446V6.24186H5.1682L4.3492 2.51394C4.2582 2.13472 3.9202 1.86659 3.5302 1.86438H0V3.55886H2.85239L5.4789 15.618C5.5482 16.0145 5.8954 16.3019 6.2979 16.2958H21.0682C21.4582 16.2936 21.7962 16.0255 21.8872 15.6463L23.9771 7.28676C24.0383 7.03786 23.9752 6.77466 23.8076 6.58076ZM13.7536 10.6758C11.2737 10.6758 9.2632 8.66526 9.2632 6.18536C9.2632 3.70536 11.2737 1.69493 13.7536 1.69493C16.2336 1.69493 18.244 3.70536 18.244 6.18536C18.2286 8.65886 16.2272 10.6603 13.7536 10.6758Z" fill="#FF722C"/>
<path d="M13.0748 6.27007L11.5215 4.68847L10.3071 5.87467L12.4535 8.04927C12.6099 8.20887 12.8231 8.30027 13.0466 8.30347C13.2671 8.31427 13.4821 8.23237 13.6396 8.07747L17.1981 4.71677L16.0402 3.47417L13.0748 6.27007Z" fill="#FF722C"/>
</svg>
