<svg width="22" height="22" viewBox="0 0 22 22" fill="none" xmlns="http://www.w3.org/2000/svg">
<mask id="mask0_40007837_9498" style="mask-type:luminance" maskUnits="userSpaceOnUse" x="0" y="0" width="22" height="22">
<path d="M21.7143 0H0V21.7143H21.7143V0Z" fill="white"/>
</mask>
<g mask="url(#mask0_40007837_9498)">
<path d="M2.75075 15.8135H4.96735C5.09765 15.8135 5.20335 15.9191 5.20335 16.0495V19.5899H2.51465V16.0495C2.51465 15.9191 2.62035 15.8135 2.75075 15.8135Z" fill="#2CB9B0" stroke="#2CB9B0"/>
<path d="M2.73047 18.8818H4.98817V19.8259H2.73047V18.8818Z" fill="#2CB9B0"/>
<path d="M7.2653 13.9255H9.4819C9.6122 13.9255 9.7179 14.0312 9.7179 14.1615V19.5901H7.0293V14.1615C7.0293 14.0312 7.135 13.9255 7.2653 13.9255Z" fill="#2CB9B0" stroke="#2CB9B0"/>
<path d="M7.24414 18.8821H9.50174V19.8262H7.24414V18.8821Z" fill="#2CB9B0"/>
<path d="M11.7809 11.0932H13.9975C14.1279 11.0932 14.2336 11.1989 14.2336 11.3293V19.5901H11.5449V11.3293C11.5449 11.1989 11.6506 11.0932 11.7809 11.0932Z" fill="#2CB9B0" stroke="#2CB9B0"/>
<path d="M11.7598 18.8821H14.0175V19.8262H11.7598V18.8821Z" fill="#2CB9B0"/>
<path d="M16.2965 9.20432H18.5132C18.6435 9.20432 18.7492 9.31002 18.7492 9.44032V19.5894H16.0605V9.44032C16.0605 9.31002 16.1662 9.20432 16.2965 9.20432Z" fill="#2CB9B0" stroke="#2CB9B0"/>
<path d="M16.2754 18.8818H18.533V19.8259H16.2754V18.8818Z" fill="#2CB9B0"/>
<path d="M13.3727 3.43402C11.87 6.93082 6.07282 9.63112 3.34492 10.5487C2.96682 10.6804 2.96192 11.2519 3.33022 11.3654C3.33982 11.3684 3.35022 11.3693 3.36032 11.3687C10.3765 10.959 14.3125 6.93432 15.4613 4.88832C15.488 4.84072 15.5479 4.82652 15.5942 4.85542L16.4915 5.41622C16.5587 5.45822 16.6445 5.40392 16.6353 5.32522L16.1922 1.52692C16.1854 1.46872 16.1279 1.43072 16.0717 1.44722L12.5148 2.49532C12.443 2.51642 12.4234 2.60832 12.4811 2.65602C12.6778 2.81842 12.9991 3.07462 13.3408 3.32162C13.3763 3.34732 13.3901 3.39362 13.3727 3.43402Z" fill="#2CB9B0" stroke="#2CB9B0"/>
<path d="M21.0058 20.2976H0.7077C0.57735 20.2976 0.47168 20.1919 0.47168 20.0616C0.47168 19.9312 0.57735 19.8255 0.7077 19.8255H21.0058C21.1362 19.8255 21.2418 19.9312 21.2418 20.0616C21.2418 20.1919 21.1362 20.2976 21.0058 20.2976Z" fill="#2CB9B0"/>
</g>
</svg>
