<svg width="40" height="40" viewBox="0 0 40 40" fill="none" xmlns="http://www.w3.org/2000/svg">
<rect width="40" height="40" rx="20" fill="#ffffff" fill-opacity="0.15"/>
<path fill-rule="evenodd" clip-rule="evenodd" d="M11.0635 28.502V17.7542H12.851V27.6083H27.151V17.7542H28.9385V28.502C28.9385 28.9956 28.5383 29.3958 28.0447 29.3958H11.9572C11.4636 29.3958 11.0635 28.9956 11.0635 28.502Z" fill="#F35DA7"/>
<path fill-rule="evenodd" clip-rule="evenodd" d="M17.8582 23.8977C18.2852 24.2767 19.052 24.5832 19.9996 24.5832C20.9473 24.5832 21.7141 24.2767 22.1411 23.8977L23.3582 25.2688C22.531 26.003 21.301 26.4165 19.9996 26.4165C18.6982 26.4165 17.4683 26.003 16.6411 25.2688L17.8582 23.8977Z" fill="#F35DA7"/>
<path d="M29.8229 17.0481C29.8862 17.2541 29.8493 17.4779 29.7232 17.6527C28.9238 18.7594 27.6268 20.2293 25.2743 20.2293C24.2845 20.2293 23.3703 19.9024 22.6364 19.3514C21.9023 19.9027 20.9885 20.2293 19.9985 20.2293C19.0091 20.2293 18.095 19.9025 17.3613 19.3518C16.6273 19.9029 15.7137 20.2293 14.724 20.2293C12.3712 20.2293 11.0758 18.7591 10.2767 17.6527C10.1504 17.4779 10.1135 17.254 10.1769 17.048L12.1596 10.6042L27.8419 10.6043L29.8229 17.0481Z" fill="#F35DA7"/>
</svg>
